<svg xmlns="http://www.w3.org/2000/svg" xmlns:xlink="http://www.w3.org/1999/xlink" width="1080" zoomAndPan="magnify" viewBox="0 0 810 809.999993" height="1080" preserveAspectRatio="xMidYMid meet" version="1.0"><path fill="#000000" d="M 804.25 375.996094 C 725.738281 375.996094 647.273438 375.996094 567.957031 375.996094 C 560.644531 343.800781 546.945312 314.851562 523.257812 291.585938 C 478.101562 247.234375 424.183594 230.625 362.820312 246.835938 C 301.628906 263.011719 262.40625 303.660156 244.367188 364.296875 C 242.132812 371.78125 241.351562 377.058594 231.042969 376.984375 C 156.734375 376.464844 82.421875 376.695312 8.097656 376.660156 C 6.226562 376.660156 4.34375 376.261719 2.523438 376.054688 C 8.015625 208.796875 148.601562 17.023438 377.507812 3.539062 C 627 -11.152344 795.175781 186.03125 804.25 375.996094 Z M 804.25 375.996094 " fill-opacity="0.1" fill-rule="evenodd"/><path fill="#000000" d="M 3.441406 443.367188 C 51.011719 443.367188 97.265625 443.367188 143.519531 443.367188 C 172.46875 443.367188 201.429688 443.574219 230.367188 443.222656 C 238.03125 443.140625 242.027344 444.515625 244.71875 453.027344 C 268.355469 527.425781 330.648438 573.953125 405.152344 573.746094 C 478.957031 573.542969 540.769531 526.738281 564.890625 453.449219 C 566.230469 449.367188 571.914062 443.839844 575.605469 443.816406 C 649.90625 443.296875 724.207031 443.476562 798.515625 443.574219 C 799.855469 443.574219 801.207031 444.371094 802.5 444.78125 C 790.179688 635.53125 619.121094 807.183594 409.195312 808.605469 C 175.4375 810.1875 15.953125 625.558594 3.441406 443.367188 Z M 36.289062 472.34375 C 59.347656 627.347656 211.085938 791.113281 425.246094 778.996094 C 625.058594 767.683594 753.722656 603.058594 769.035156 472.765625 C 709.207031 472.765625 649.410156 472.765625 589.121094 472.765625 C 587.371094 476.640625 585.632812 480.574219 583.859375 484.5 C 550.988281 557.378906 493.378906 596.117188 414.953125 602.078125 C 333.738281 608.261719 257.59375 559.984375 225.78125 484.921875 C 221.464844 474.71875 216.382812 471.582031 205.65625 472.0625 C 184.453125 473.03125 163.1875 472.34375 141.960938 472.34375 C 106.796875 472.34375 71.621094 472.34375 36.289062 472.34375 Z M 36.289062 472.34375 " fill-opacity="0.1" fill-rule="evenodd"/><path fill="#000000" d="M 516.054688 409.121094 C 515.824219 471.53125 464.777344 521.96875 402.234375 521.582031 C 339.894531 521.195312 289.632812 469.976562 290.1875 407.371094 C 290.71875 345.621094 341.378906 295.558594 403.269531 295.632812 C 465.695312 295.691406 516.269531 346.601562 516.054688 409.121094 Z M 516.054688 409.121094 " fill-opacity="0.1" fill-rule="evenodd"/></svg>